<?xml version="1.0" encoding="UTF-8" standalone="no"?>
<!DOCTYPE svg PUBLIC "-//W3C//DTD SVG 1.1//EN" "http://www.w3.org/Graphics/SVG/1.1/DTD/svg11.dtd">
<!-- Generated by Microsoft Visio, SVG Export 2.svg Page-1 -->
<svg xmlns="http://www.w3.org/2000/svg" xmlns:xlink="http://www.w3.org/1999/xlink" xmlns:ev="http://www.w3.org/2001/xml-events"
		xmlns:v="http://schemas.microsoft.com/visio/2003/SVGExtensions/" width="9.81583in" height="3.45622in"
		viewBox="0 0 706.74 248.848" xml:space="preserve" color-interpolation-filters="sRGB" class="st11">
	<v:documentProperties v:langID="1033" v:viewMarkup="false"/>

	<style type="text/css">
	<![CDATA[
		.st1 {fill:#bfbfbf;stroke:#000000;stroke-linecap:round;stroke-linejoin:round;stroke-width:0.24}
		.st2 {fill:#000000;font-family:Calibri;font-size:0.833336em}
		.st3 {font-size:1em}
		.st4 {fill:#c4d6a0;stroke:#000000;stroke-linecap:round;stroke-linejoin:round;stroke-width:0.24}
		.st5 {fill:#000000;fill-opacity:1;stroke:#000000;stroke-opacity:1;stroke-width:0.08695652173913}
		.st6 {fill:#f9c499;stroke:#000000;stroke-linecap:round;stroke-linejoin:round;stroke-width:0.24}
		.st7 {fill:#ffffff;fill-opacity:0;stroke:#000000;stroke-dasharray:1.68,1.2;stroke-linecap:round;stroke-linejoin:round;stroke-width:0.24}
		.st8 {marker-end:url(#mrkr13-39);stroke:#000000;stroke-linecap:round;stroke-linejoin:round;stroke-width:0.75}
		.st9 {fill:#000000;fill-opacity:1;stroke:#000000;stroke-opacity:1;stroke-width:0.22935779816514}
		.st10 {marker-end:url(#mrkr5-45);stroke:#000000;stroke-linecap:round;stroke-linejoin:round;stroke-width:0.75}
		.st11 {fill:none;fill-rule:evenodd;font-size:12px;overflow:visible;stroke-linecap:square;stroke-miterlimit:3}
	]]>
	</style>

	<defs id="Markers">
		<g id="lend13">
			<path d="M 3 1 L 0 0 L 3 -1 L 3 1 " style="stroke:none"/>
		</g>
		<marker id="mrkr13-8" class="st5" v:arrowType="13" v:arrowSize="2" v:setback="34.5" refX="-34.5" orient="auto"
				markerUnits="strokeWidth" overflow="visible">
			<use xlink:href="#lend13" transform="scale(-11.5,-11.5) "/>
		</marker>
		<marker id="mrkr13-39" class="st9" v:arrowType="13" v:arrowSize="2" v:setback="13.08" refX="-13.08" orient="auto"
				markerUnits="strokeWidth" overflow="visible">
			<use xlink:href="#lend13" transform="scale(-4.36,-4.36) "/>
		</marker>
		<g id="lend5">
			<path d="M 2 1 L 0 0 L 1.98117 -0.993387 C 1.67173 -0.364515 1.67301 0.372641 1.98465 1.00043 " style="stroke:none"/>
		</g>
		<marker id="mrkr5-45" class="st9" v:arrowType="5" v:arrowSize="2" v:setback="7.63" refX="-7.63" orient="auto"
				markerUnits="strokeWidth" overflow="visible">
			<use xlink:href="#lend5" transform="scale(-4.36,-4.36) "/>
		</marker>
	</defs>
	<g v:mID="0" v:index="1" v:groupContext="foregroundPage">
		<title>Page-1</title>
		<v:pageProperties v:drawingScale="1" v:pageScale="1" v:drawingUnits="19" v:shadowOffsetX="9" v:shadowOffsetY="-9"/>
		<v:layer v:name="Connector" v:index="0"/>
		<g id="shape76-1" v:mID="76" v:groupContext="shape" transform="translate(625.62,-78.12)">
			<title>Rectangle.76</title>
			<desc>Output Bitmap Texture</desc>
			<v:userDefs>
				<v:ud v:nameU="visVersion" v:val="VT0(15):26"/>
			</v:userDefs>
			<v:textBlock v:margins="rect(4,4,4,4)"/>
			<v:textRect cx="40.5" cy="233.848" width="81" height="30"/>
			<rect x="0" y="218.848" width="81" height="30" class="st1"/>
			<text x="10.27" y="230.85" class="st2" v:langID="1033"><v:paragraph v:horizAlign="1"/><v:tabList/>Output Bitmap <tspan
						x="24.88" dy="1.2em" class="st3">Texture</tspan></text>		</g>
		<g id="shape77-5" v:mID="77" v:groupContext="shape" transform="translate(243.12,-54.12)">
			<title>Rounded Rectangle.77</title>
			<desc>Crop Effect</desc>
			<v:userDefs>
				<v:ud v:nameU="CTypeTopLeftSnip" v:prompt="" v:val="VT0(0):5"/>
				<v:ud v:nameU="CTypeTopRightSnip" v:prompt="" v:val="VT0(0):5"/>
				<v:ud v:nameU="CTypeBotLeftSnip" v:prompt="" v:val="VT0(0):5"/>
				<v:ud v:nameU="CTypeBotRightSnip" v:prompt="" v:val="VT0(0):5"/>
				<v:ud v:nameU="CornerLockHoriz" v:prompt="" v:val="VT0(1):5"/>
				<v:ud v:nameU="CornerLockVert" v:prompt="" v:val="VT0(1):5"/>
				<v:ud v:nameU="CornerLockDiag" v:prompt="" v:val="VT0(0):5"/>
				<v:ud v:nameU="TopLeftOffset" v:prompt="" v:val="VT0(0.15):1"/>
				<v:ud v:nameU="TopRightOffset" v:prompt="" v:val="VT0(0.15):1"/>
				<v:ud v:nameU="BotLeftOffset" v:prompt="" v:val="VT0(0.15):1"/>
				<v:ud v:nameU="BotRightOffset" v:prompt="" v:val="VT0(0.15):1"/>
				<v:ud v:nameU="visVersion" v:prompt="" v:val="VT0(15):26"/>
				<v:ud v:nameU="TopLeftOffset" v:prompt="" v:val="VT0(0.21875):1"/>
				<v:ud v:nameU="TopRightOffset" v:prompt="" v:val="VT0(0.21875):1"/>
				<v:ud v:nameU="BotLeftOffset" v:prompt="" v:val="VT0(0.21875):1"/>
				<v:ud v:nameU="BotRightOffset" v:prompt="" v:val="VT0(0.21875):1"/>
			</v:userDefs>
			<v:textBlock v:margins="rect(4,4,4,4)" v:verticalAlign="0"/>
			<v:textRect cx="78.75" cy="209.848" width="157.5" height="78"/>
			<path d="M15.75 248.85 L141.75 248.85 A15.7497 15.7497 -180 0 0 157.5 233.1 L157.5 186.6 A15.7497 15.7497 -180 0 0 141.75
						 170.85 L15.75 170.85 A15.7497 15.7497 -180 0 0 0 186.6 L0 233.1 A15.7497 15.7497 -180 0 0 15.75 248.85 Z"
					class="st4"/>
			<text x="56.18" y="183.85" class="st2" v:langID="1033"><v:paragraph v:horizAlign="1"/><v:tabList/>Crop Effect</text>		</g>
		<g id="shape78-10" v:mID="78" v:groupContext="shape" transform="translate(281.37,-78.12)">
			<title>Ellipse.78</title>
			<desc>Transform with no shaders</desc>
			<v:userDefs>
				<v:ud v:nameU="visVersion" v:val="VT0(15):26"/>
			</v:userDefs>
			<v:textBlock v:margins="rect(4,4,4,4)"/>
			<v:textRect cx="40.5" cy="233.848" width="70.88" height="26.25"/>
			<path d="M0 233.85 A40.5 15 0 0 1 81 233.85 A40.5 15 0 1 1 0 233.85 Z" class="st6"/>
			<text x="9.29" y="230.85" class="st2" v:langID="1033"><v:paragraph v:horizAlign="1"/><v:tabList/>Transform with <tspan
						x="18.32" dy="1.2em" class="st3">no shaders</tspan></text>		</g>
		<g id="shape79-15" v:mID="79" v:groupContext="shape" transform="translate(0.12,-186.12)">
			<title>Rectangle.79</title>
			<desc>Input Bitmap Texture</desc>
			<v:userDefs>
				<v:ud v:nameU="visVersion" v:val="VT0(15):26"/>
			</v:userDefs>
			<v:textBlock v:margins="rect(4,4,4,4)"/>
			<v:textRect cx="40.5" cy="233.848" width="81" height="30"/>
			<rect x="0" y="218.848" width="81" height="30" class="st1"/>
			<text x="14" y="230.85" class="st2" v:langID="1033"><v:paragraph v:horizAlign="1"/><v:tabList/>Input Bitmap <tspan
						x="24.88" dy="1.2em" class="st3">Texture</tspan></text>		</g>
		<g id="shape83-19" v:mID="83" v:groupContext="shape" transform="translate(0.12,-0.12)">
			<title>Rectangle.83</title>
			<desc>Single D3D draw call</desc>
			<v:userDefs>
				<v:ud v:nameU="visVersion" v:val="VT0(15):26"/>
			</v:userDefs>
			<v:textBlock v:margins="rect(4,4,4,4)"/>
			<v:textRect cx="63" cy="233.848" width="126" height="30"/>
			<path d="M0 248.85 L126 248.85 L126 218.85 L0 218.85 L0 248.85 Z" class="st7"/>
			<text x="21.72" y="236.85" class="st2" v:langID="1033"><v:paragraph v:horizAlign="1"/><v:tabList/>Single D3D draw call</text>		</g>
		<g id="shape84-22" v:mID="84" v:groupContext="shape" transform="translate(132.87,-162.12)">
			<title>Rounded Rectangle.84</title>
			<desc>Border Effect</desc>
			<v:userDefs>
				<v:ud v:nameU="CTypeTopLeftSnip" v:prompt="" v:val="VT0(0):5"/>
				<v:ud v:nameU="CTypeTopRightSnip" v:prompt="" v:val="VT0(0):5"/>
				<v:ud v:nameU="CTypeBotLeftSnip" v:prompt="" v:val="VT0(0):5"/>
				<v:ud v:nameU="CTypeBotRightSnip" v:prompt="" v:val="VT0(0):5"/>
				<v:ud v:nameU="CornerLockHoriz" v:prompt="" v:val="VT0(1):5"/>
				<v:ud v:nameU="CornerLockVert" v:prompt="" v:val="VT0(1):5"/>
				<v:ud v:nameU="CornerLockDiag" v:prompt="" v:val="VT0(0):5"/>
				<v:ud v:nameU="TopLeftOffset" v:prompt="" v:val="VT0(0.15):1"/>
				<v:ud v:nameU="TopRightOffset" v:prompt="" v:val="VT0(0.15):1"/>
				<v:ud v:nameU="BotLeftOffset" v:prompt="" v:val="VT0(0.15):1"/>
				<v:ud v:nameU="BotRightOffset" v:prompt="" v:val="VT0(0.15):1"/>
				<v:ud v:nameU="visVersion" v:prompt="" v:val="VT0(15):26"/>
				<v:ud v:nameU="TopLeftOffset" v:prompt="" v:val="VT0(0.21875):1"/>
				<v:ud v:nameU="TopRightOffset" v:prompt="" v:val="VT0(0.21875):1"/>
				<v:ud v:nameU="BotLeftOffset" v:prompt="" v:val="VT0(0.21875):1"/>
				<v:ud v:nameU="BotRightOffset" v:prompt="" v:val="VT0(0.21875):1"/>
			</v:userDefs>
			<v:textBlock v:margins="rect(4,4,4,4)" v:verticalAlign="0"/>
			<v:textRect cx="78.75" cy="209.848" width="157.5" height="78"/>
			<path d="M15.75 248.85 L141.75 248.85 A15.7497 15.7497 -180 0 0 157.5 233.1 L157.5 186.6 A15.7497 15.7497 -180 0 0 141.75
						 170.85 L15.75 170.85 A15.7497 15.7497 -180 0 0 -0 186.6 L0 233.1 A15.7497 15.7497 -180 0 0 15.75 248.85
						 Z" class="st4"/>
			<text x="51.89" y="183.85" class="st2" v:langID="1033"><v:paragraph v:horizAlign="1"/><v:tabList/>Border Effect</text>		</g>
		<g id="shape85-25" v:mID="85" v:groupContext="shape" transform="translate(155.37,-186.12)">
			<title>Ellipse.85</title>
			<desc>Border Transform</desc>
			<v:userDefs>
				<v:ud v:nameU="visVersion" v:val="VT0(15):26"/>
			</v:userDefs>
			<v:textBlock v:margins="rect(4,4,4,4)"/>
			<v:textRect cx="54" cy="233.848" width="94.5" height="26.25"/>
			<path d="M0 233.85 A54 15 0 0 1 108 233.85 A54 15 0 0 1 0 233.85 Z" class="st6"/>
			<text x="17.85" y="236.85" class="st2" v:langID="1033"><v:paragraph v:horizAlign="1"/><v:tabList/>Border Transform</text>		</g>
		<g id="shape86-28" v:mID="86" v:groupContext="shape" transform="translate(427.62,-54.12)">
			<title>Rounded Rectangle.86</title>
			<desc>Border Effect</desc>
			<v:userDefs>
				<v:ud v:nameU="CTypeTopLeftSnip" v:prompt="" v:val="VT0(0):5"/>
				<v:ud v:nameU="CTypeTopRightSnip" v:prompt="" v:val="VT0(0):5"/>
				<v:ud v:nameU="CTypeBotLeftSnip" v:prompt="" v:val="VT0(0):5"/>
				<v:ud v:nameU="CTypeBotRightSnip" v:prompt="" v:val="VT0(0):5"/>
				<v:ud v:nameU="CornerLockHoriz" v:prompt="" v:val="VT0(1):5"/>
				<v:ud v:nameU="CornerLockVert" v:prompt="" v:val="VT0(1):5"/>
				<v:ud v:nameU="CornerLockDiag" v:prompt="" v:val="VT0(0):5"/>
				<v:ud v:nameU="TopLeftOffset" v:prompt="" v:val="VT0(0.15):1"/>
				<v:ud v:nameU="TopRightOffset" v:prompt="" v:val="VT0(0.15):1"/>
				<v:ud v:nameU="BotLeftOffset" v:prompt="" v:val="VT0(0.15):1"/>
				<v:ud v:nameU="BotRightOffset" v:prompt="" v:val="VT0(0.15):1"/>
				<v:ud v:nameU="visVersion" v:prompt="" v:val="VT0(15):26"/>
				<v:ud v:nameU="TopLeftOffset" v:prompt="" v:val="VT0(0.21875):1"/>
				<v:ud v:nameU="TopRightOffset" v:prompt="" v:val="VT0(0.21875):1"/>
				<v:ud v:nameU="BotLeftOffset" v:prompt="" v:val="VT0(0.21875):1"/>
				<v:ud v:nameU="BotRightOffset" v:prompt="" v:val="VT0(0.21875):1"/>
			</v:userDefs>
			<v:textBlock v:margins="rect(4,4,4,4)" v:verticalAlign="0"/>
			<v:textRect cx="78.75" cy="209.848" width="157.5" height="78"/>
			<path d="M15.75 248.85 L141.75 248.85 A15.7497 15.7497 -180 0 0 157.5 233.1 L157.5 186.6 A15.7497 15.7497 -180 0 0 141.75
						 170.85 L15.75 170.85 A15.7497 15.7497 -180 0 0 -0 186.6 L0 233.1 A15.7497 15.7497 -180 0 0 15.75 248.85
						 Z" class="st4"/>
			<text x="51.89" y="183.85" class="st2" v:langID="1033"><v:paragraph v:horizAlign="1"/><v:tabList/>Border Effect</text>		</g>
		<g id="shape87-31" v:mID="87" v:groupContext="shape" transform="translate(452.37,-78.12)">
			<title>Ellipse.87</title>
			<desc>Border Transform</desc>
			<v:userDefs>
				<v:ud v:nameU="visVersion" v:val="VT0(15):26"/>
			</v:userDefs>
			<v:textBlock v:margins="rect(4,4,4,4)"/>
			<v:textRect cx="54" cy="233.848" width="94.5" height="26.25"/>
			<path d="M0 233.85 A54 15 0 0 1 108 233.85 A54 15 0 0 1 0 233.85 Z" class="st6"/>
			<text x="17.85" y="236.85" class="st2" v:langID="1033"><v:paragraph v:horizAlign="1"/><v:tabList/>Border Transform</text>		</g>
		<g id="shape88-34" v:mID="88" v:groupContext="shape" v:layerMember="0" transform="translate(362.37,-84.12)">
			<title>Dynamic connector.88</title>
			<path d="M0 239.85 L80.19 239.85" class="st8"/>
		</g>
		<g id="shape90-40" v:mID="90" v:groupContext="shape" v:layerMember="0" transform="translate(560.37,-84.12)">
			<title>Dynamic connector.90</title>
			<path d="M0 239.85 L59.53 239.85" class="st10"/>
		</g>
		<g id="shape92-46" v:mID="92" v:groupContext="shape" v:layerMember="0" transform="translate(81.12,-192.12)">
			<title>Dynamic connector.92</title>
			<path d="M0 239.85 L64.44 239.85" class="st8"/>
		</g>
		<g id="shape93-51" v:mID="93" v:groupContext="shape" transform="translate(351.12,-162.12)">
			<title>Rounded Rectangle.93</title>
			<desc>Scale Effect</desc>
			<v:userDefs>
				<v:ud v:nameU="CTypeTopLeftSnip" v:prompt="" v:val="VT0(0):5"/>
				<v:ud v:nameU="CTypeTopRightSnip" v:prompt="" v:val="VT0(0):5"/>
				<v:ud v:nameU="CTypeBotLeftSnip" v:prompt="" v:val="VT0(0):5"/>
				<v:ud v:nameU="CTypeBotRightSnip" v:prompt="" v:val="VT0(0):5"/>
				<v:ud v:nameU="CornerLockHoriz" v:prompt="" v:val="VT0(1):5"/>
				<v:ud v:nameU="CornerLockVert" v:prompt="" v:val="VT0(1):5"/>
				<v:ud v:nameU="CornerLockDiag" v:prompt="" v:val="VT0(0):5"/>
				<v:ud v:nameU="TopLeftOffset" v:prompt="" v:val="VT0(0.15):1"/>
				<v:ud v:nameU="TopRightOffset" v:prompt="" v:val="VT0(0.15):1"/>
				<v:ud v:nameU="BotLeftOffset" v:prompt="" v:val="VT0(0.15):1"/>
				<v:ud v:nameU="BotRightOffset" v:prompt="" v:val="VT0(0.15):1"/>
				<v:ud v:nameU="visVersion" v:prompt="" v:val="VT0(15):26"/>
				<v:ud v:nameU="TopLeftOffset" v:prompt="" v:val="VT0(0.21875):1"/>
				<v:ud v:nameU="TopRightOffset" v:prompt="" v:val="VT0(0.21875):1"/>
				<v:ud v:nameU="BotLeftOffset" v:prompt="" v:val="VT0(0.21875):1"/>
				<v:ud v:nameU="BotRightOffset" v:prompt="" v:val="VT0(0.21875):1"/>
			</v:userDefs>
			<v:textBlock v:margins="rect(4,4,4,4)" v:verticalAlign="0"/>
			<v:textRect cx="78.75" cy="209.848" width="157.5" height="78"/>
			<path d="M15.75 248.85 L141.75 248.85 A15.7497 15.7497 -180 0 0 157.5 233.1 L157.5 186.6 A15.7497 15.7497 -180 0 0 141.75
						 170.85 L15.75 170.85 A15.7497 15.7497 -180 0 0 -0 186.6 L0 233.1 A15.7497 15.7497 -180 0 0 15.75 248.85
						 Z" class="st4"/>
			<text x="55.41" y="183.85" class="st2" v:langID="1033"><v:paragraph v:horizAlign="1"/><v:tabList/>Scale Effect</text>		</g>
		<g id="shape94-55" v:mID="94" v:groupContext="shape" transform="translate(373.62,-186.12)">
			<title>Ellipse.94</title>
			<desc>Transform with vertex shader</desc>
			<v:userDefs>
				<v:ud v:nameU="visVersion" v:val="VT0(15):26"/>
			</v:userDefs>
			<v:textBlock v:margins="rect(4,4,4,4)"/>
			<v:textRect cx="54" cy="233.848" width="94.5" height="26.25"/>
			<path d="M0 233.85 A54 15 0 0 1 108 233.85 A54 15 0 0 1 0 233.85 Z" class="st6"/>
			<text x="21.66" y="230.85" class="st2" v:langID="1033"><v:paragraph v:horizAlign="1"/><v:tabList/>Transform  with <tspan
						x="26.22" dy="1.2em" class="st3">vertex shader</tspan></text>		</g>
		<g id="shape98-60" v:mID="98" v:groupContext="shape" transform="translate(72.12,-54.12)">
			<title>Rounded Rectangle.98</title>
			<desc>Color matrix Effect</desc>
			<v:userDefs>
				<v:ud v:nameU="CTypeTopLeftSnip" v:prompt="" v:val="VT0(0):5"/>
				<v:ud v:nameU="CTypeTopRightSnip" v:prompt="" v:val="VT0(0):5"/>
				<v:ud v:nameU="CTypeBotLeftSnip" v:prompt="" v:val="VT0(0):5"/>
				<v:ud v:nameU="CTypeBotRightSnip" v:prompt="" v:val="VT0(0):5"/>
				<v:ud v:nameU="CornerLockHoriz" v:prompt="" v:val="VT0(1):5"/>
				<v:ud v:nameU="CornerLockVert" v:prompt="" v:val="VT0(1):5"/>
				<v:ud v:nameU="CornerLockDiag" v:prompt="" v:val="VT0(0):5"/>
				<v:ud v:nameU="TopLeftOffset" v:prompt="" v:val="VT0(0.15):1"/>
				<v:ud v:nameU="TopRightOffset" v:prompt="" v:val="VT0(0.15):1"/>
				<v:ud v:nameU="BotLeftOffset" v:prompt="" v:val="VT0(0.15):1"/>
				<v:ud v:nameU="BotRightOffset" v:prompt="" v:val="VT0(0.15):1"/>
				<v:ud v:nameU="visVersion" v:prompt="" v:val="VT0(15):26"/>
				<v:ud v:nameU="TopLeftOffset" v:prompt="" v:val="VT0(0.21875):1"/>
				<v:ud v:nameU="TopRightOffset" v:prompt="" v:val="VT0(0.21875):1"/>
				<v:ud v:nameU="BotLeftOffset" v:prompt="" v:val="VT0(0.21875):1"/>
				<v:ud v:nameU="BotRightOffset" v:prompt="" v:val="VT0(0.21875):1"/>
			</v:userDefs>
			<v:textBlock v:margins="rect(4,4,4,4)" v:verticalAlign="0"/>
			<v:textRect cx="78.75" cy="209.848" width="157.5" height="78"/>
			<path d="M15.75 248.85 L141.75 248.85 A15.7497 15.7497 -180 0 0 157.5 233.1 L157.5 186.6 A15.7497 15.7497 -180 0 0 141.75
						 170.85 L15.75 170.85 A15.7497 15.7497 -180 0 0 0 186.6 L0 233.1 A15.7497 15.7497 -180 0 0 15.75 248.85 Z"
					class="st4"/>
			<text x="40.77" y="183.85" class="st2" v:langID="1033"><v:paragraph v:horizAlign="1"/><v:tabList/>Color matrix Effect</text>		</g>
		<g id="shape99-63" v:mID="99" v:groupContext="shape" transform="translate(102.334,-78.12)">
			<title>Ellipse.99</title>
			<desc>Transform with Pixel shader</desc>
			<v:userDefs>
				<v:ud v:nameU="visVersion" v:val="VT0(15):26"/>
			</v:userDefs>
			<v:textBlock v:margins="rect(4,4,4,4)"/>
			<v:textRect cx="46.2857" cy="233.848" width="81" height="26.25"/>
			<path d="M0 233.85 A46.2857 15 0 0 1 92.57 233.85 A46.2857 15 0 1 1 -0 233.85 Z" class="st6"/>
			<text x="15.07" y="230.85" class="st2" v:langID="1033"><v:paragraph v:horizAlign="1"/><v:tabList/>Transform with <tspan
						x="21.79" dy="1.2em" class="st3">Pixel shader</tspan></text>		</g>
		<g id="shape104-67" v:mID="104" v:groupContext="shape" v:layerMember="0" transform="translate(194.906,-84.12)">
			<title>Dynamic connector.104</title>
			<path d="M0 239.85 L76.65 239.85" class="st8"/>
		</g>
		<g id="shape82-72" v:mID="82" v:groupContext="shape" transform="translate(94.62,-67.62)">
			<title>Rectangle.82</title>
			<v:userDefs>
				<v:ud v:nameU="visVersion" v:val="VT0(15):26"/>
			</v:userDefs>
			<path d="M0 248.85 L472.5 248.85 L472.5 95.85 L0 95.85 L0 248.85 Z" class="st7"/>
		</g>
		<g id="shape106-74" v:mID="106" v:groupContext="shape" transform="translate(494.621,302.386) rotate(164.381)">
			<title>Sheet.106</title>
			<path d="M0 248.85 L283.98 248.85" class="st10"/>
		</g>
		<g id="shape91-79" v:mID="91" v:groupContext="shape" v:layerMember="0" transform="translate(263.37,-192.12)">
			<title>Dynamic connector.91</title>
			<path d="M0 239.85 L100.44 239.85" class="st8"/>
		</g>
	</g>
</svg>
